<?xml version="1.0" standalone="no"?><!DOCTYPE svg PUBLIC "-//W3C//DTD SVG 1.1//EN" "http://www.w3.org/Graphics/SVG/1.1/DTD/svg11.dtd"><svg t="1711436987580" class="icon" viewBox="0 0 1024 1024" version="1.1" xmlns="http://www.w3.org/2000/svg" p-id="29482" width="20" height="20" xmlns:xlink="http://www.w3.org/1999/xlink"><path d="M266.24 61.44h491.52a81.92 81.92 0 0 1 81.92 81.92v573.44c0 135.72096-110.03904 245.76-245.76 245.76H266.24a81.92 81.92 0 0 1-81.92-81.92V143.36a81.92 81.92 0 0 1 81.92-81.92z m20.48 81.92a20.48 20.48 0 0 0-20.48 20.48v327.68a20.48 20.48 0 0 0 20.48 20.48h450.56a20.48 20.48 0 0 0 20.48-20.48V163.84a20.48 20.48 0 0 0-20.48-20.48H286.72z m430.08 532.48a40.96 40.96 0 1 0 0-81.92 40.96 40.96 0 0 0 0 81.92z m-81.92 122.88a40.96 40.96 0 1 0 0-81.92 40.96 40.96 0 0 0 0 81.92z m-225.28-143.36v-20.48a40.96 40.96 0 1 0-81.92 0v20.48h-20.48a40.96 40.96 0 1 0 0 81.92h20.48v20.48a40.96 40.96 0 1 0 81.92 0v-20.48h20.48a40.96 40.96 0 1 0 0-81.92h-20.48z" p-id="29483" fill="#ffffff"></path></svg>